<?xml version="1.0" encoding="UTF-8"?>
<svg id="Logo_IFRN_Simbolo" xmlns="http://www.w3.org/2000/svg" viewBox="0 0 140 180">
  <defs>
    <style>
      .cls-1 { fill: #c82127; }
      .cls-4 { fill: #359846; }
    </style>
  </defs>
  <g>
    <g>
      <!-- Quadrados verdes (grid 3x3) -->
      <path class="cls-4" d="M86.6,36.61c0,2.11-1.76,3.87-3.87,3.87h-30.98c-2.11,0-3.87-1.76-3.87-3.87V5.63c0-2.11,1.76-3.87,3.87-3.87h30.98c2.11,0,3.87,1.76,3.87,3.87v30.98Z"/>
      <path class="cls-4" d="M133.07,36.61c0,2.11-1.76,3.87-3.87,3.87h-30.98c-2.11,0-3.87-1.76-3.87-3.87V5.63c0-2.11,1.76-3.87,3.87-3.87h30.98c2.11,0,3.87,1.76,3.87,3.87v30.98Z"/>
      <path class="cls-4" d="M133.07,129.2c0,2.11-1.76,3.87-3.87,3.87h-30.98c-2.11,0-3.87-1.76-3.87-3.87v-30.98c0-2.11,1.76-3.87,3.87-3.87h30.98c2.11,0,3.87,1.76,3.87,3.87v30.98Z"/>
      <path class="cls-4" d="M40.49,82.73c0,2.11-1.76,3.87-3.87,3.87H5.63c-2.11,0-3.87-1.76-3.87-3.87v-30.98c0-2.11,1.76-3.87,3.87-3.87h30.98c2.11,0,3.87,1.76,3.87,3.87v30.98Z"/>
      <path class="cls-4" d="M86.6,82.73c0,2.11-1.76,3.87-3.87,3.87h-30.98c-2.11,0-3.87-1.76-3.87-3.87v-30.98c0-2.11,1.76-3.87,3.87-3.87h30.98c2.11,0,3.87,1.76,3.87,3.87v30.98Z"/>
      <path class="cls-4" d="M40.49,129.2c0,2.11-1.76,3.87-3.87,3.87H5.63c-2.11,0-3.87-1.76-3.87-3.87v-30.98c0-2.11,1.76-3.87,3.87-3.87h30.98c2.11,0,3.87,1.76,3.87,3.87v30.98Z"/>
      <path class="cls-4" d="M86.6,129.2c0,2.11-1.76,3.87-3.87,3.87h-30.98c-2.11,0-3.87-1.76-3.87-3.87v-30.98c0-2.11,1.76-3.87,3.87-3.87h30.98c2.11,0,3.87,1.76,3.87,3.87v30.98Z"/>
      <path class="cls-4" d="M40.49,175.66c0,2.11-1.76,3.87-3.87,3.87H5.63c-2.11,0-3.87-1.76-3.87-3.87v-30.98c0-2.11,1.76-3.87,3.87-3.87h30.98c2.11,0,3.87,1.76,3.87,3.87v30.98Z"/>
      <path class="cls-4" d="M86.6,175.66c0,2.11-1.76,3.87-3.87,3.87h-30.98c-2.11,0-3.87-1.76-3.87-3.87v-30.98c0-2.11,1.76-3.87,3.87-3.87h30.98c2.11,0,3.87,1.76,3.87,3.87v30.98Z"/>

      <!-- Círculo vermelho (marca de identidade) -->
      <path class="cls-1" d="M42.24,21.12c0,11.62-9.5,21.12-21.12,21.12S0,32.74,0,21.12,9.5,0,21.12,0s21.12,9.5,21.12,21.12"/>
    </g>
  </g>
</svg>
